

<svg id="Layer_2" data-name="Layer 2" xmlns="http://www.w3.org/2000/svg" viewbox="0 0 572.46 286.14">
  <defs>
    <style>
          #Layer_1{
            padding-left: 2em;
            padding-top: 2em;
          }
          #Layer_2{
            padding-left: 2em;
            padding-top: 2em;
          }
          .cls-1 {
            fill: none;
            stroke: #84DCC6;
            stroke-miterlimit: 10;
            stroke-width: 40px;
            stroke-linecap: round;
          }
          .cls-2 {
            fill: none;
            stroke: #A5FFD6;
            stroke-miterlimit: 10;
            stroke-width: 9px;
            stroke-linecap: round;
          }
        </style>
  </defs>
  <title>weather-s-line-12</title>
  <path  class=" IFVBJWWA_0 cls-1 " d="M162.37,291a138.1,138.1,0,0,1,276.21,0" transform="translate(-14.25 -7.37)"></path>
  <g>
    <path  class=" IFVBJWWA_1 cls-1 " x1="286.23" x2="286.23" y2="99.46" d="M286.23,0L286.23,99.46"></path>
    <path  class=" IFVBJWWA_2 cls-1 " x1="415.91" y1="153.96" x2="486.24" y2="83.63" d="M415.91,153.96L486.24,83.63"></path>
    <path  class=" IFVBJWWA_3 cls-1 " x1="286.23" x2="286.23" y2="99.46" d="M286.23,0L286.23,99.46"></path>
    <path  class=" IFVBJWWA_4 cls-1 " x1="400.57" y1="25.03" x2="358.06" y2="114.95" d="M400.57,25.03L358.06,114.95"></path>
    <path  class=" IFVBJWWA_5 cls-1 " x1="400.57" y1="25.03" x2="358.06" y2="114.95" d="M400.57,25.03L358.06,114.95"></path>
    <path  class=" IFVBJWWA_6 cls-1 " x1="549.57" y1="178.3" x2="457.34" y2="215.53" d="M549.57,178.3L457.34,215.53"></path>
  </g>
  <g>
    <path  class=" IFVBJWWA_7 cls-1 " x1="572.46" y1="283.64" x2="473" y2="283.64" d="M572.46,283.64L473.0,283.64"></path>
    <path  class=" IFVBJWWA_8 cls-1 " x1="572.46" y1="283.64" x2="473" y2="283.64" d="M572.46,283.64L473.0,283.64"></path>
  </g>
  <g>
    <path  class=" IFVBJWWA_9 cls-1 " x1="156.55" y1="153.96" x2="86.22" y2="83.63" d="M156.55,153.96L86.22,83.63"></path>
    <path  class=" IFVBJWWA_10 cls-1 " x1="171.89" y1="25.03" x2="214.4" y2="114.95" d="M171.89,25.03L214.4,114.95"></path>
    <path  class=" IFVBJWWA_11 cls-1 " x1="171.89" y1="25.03" x2="214.4" y2="114.95" d="M171.89,25.03L214.4,114.95"></path>
    <path  class=" IFVBJWWA_12 cls-1 " x1="22.89" y1="178.3" x2="115.13" y2="215.53" d="M22.89,178.3L115.13,215.53"></path>
  </g>
  <g>
    <path  class=" IFVBJWWA_13 cls-1 " y1="283.64" x2="99.46" y2="283.64" d="M0,283.64L99.46,283.64"></path>
    <path  class=" IFVBJWWA_14 cls-1 " y1="283.64" x2="99.46" y2="283.64" d="M0,283.64L99.46,283.64"></path>
  </g> 
<g>
    <path  class=" IFVBJWWA_1 cls-2 " x1="286.23" x2="286.23" y2="99.46" d="M286.23,0L286.23,99.46"></path>
    <path  class=" IFVBJWWA_2 cls-2 " x1="415.91" y1="153.96" x2="486.24" y2="83.63" d="M415.91,153.96L486.24,83.63"></path>
    <path  class=" IFVBJWWA_3 cls-2 " x1="286.23" x2="286.23" y2="99.46" d="M286.23,0L286.23,99.46"></path>
    <path  class=" IFVBJWWA_4 cls-2 " x1="400.57" y1="25.03" x2="358.06" y2="114.95" d="M400.57,25.03L358.06,114.95"></path>
    <path  class=" IFVBJWWA_5 cls-2 " x1="400.57" y1="25.03" x2="358.06" y2="114.95" d="M400.57,25.03L358.06,114.95"></path>
    <path  class=" IFVBJWWA_6 cls-2 " x1="549.57" y1="178.3" x2="457.34" y2="215.53" d="M549.57,178.3L457.34,215.53"></path>
  </g>
  <g>
    <path  class=" IFVBJWWA_7 cls-2 " x1="572.46" y1="283.64" x2="473" y2="283.64" d="M572.46,283.64L473.0,283.64"></path>
    <path  class=" IFVBJWWA_8 cls-2 " x1="572.46" y1="283.64" x2="473" y2="283.64" d="M572.46,283.64L473.0,283.64"></path>
  </g>
  <g>
    <path  class=" IFVBJWWA_9 cls-2 " x1="156.55" y1="153.96" x2="86.22" y2="83.63" d="M156.55,153.96L86.22,83.63"></path>
    <path  class=" IFVBJWWA_10 cls-2 " x1="171.89" y1="25.03" x2="214.4" y2="114.95" d="M171.89,25.03L214.4,114.95"></path>
    <path  class=" IFVBJWWA_11 cls-2 " x1="171.89" y1="25.03" x2="214.4" y2="114.95" d="M171.89,25.03L214.4,114.95"></path>
    <path  class=" IFVBJWWA_12 cls-2 " x1="22.89" y1="178.3" x2="115.13" y2="215.53" d="M22.89,178.3L115.13,215.53"></path>
  </g>
  <g>
    <path  class=" IFVBJWWA_13 cls-2 " y1="283.64" x2="99.46" y2="283.64" d="M0,283.64L99.46,283.64"></path>
    <path  class=" IFVBJWWA_14 cls-2 " y1="283.64" x2="99.46" y2="283.64" d="M0,283.64L99.46,283.64"></path>
  </g>
<style>.IFVBJWWA_0{stroke-dasharray:3523 3525;stroke-dashoffset:3524;animation:IFVBJWWA_draw 2000ms ease-out 0ms forwards;}.IFVBJWWA_0{stroke-dasharray:434 436;stroke-dashoffset:435;animation:IFVBJWWA_draw 2000ms ease-out 100ms forwards;}.IFVBJWWA_1{stroke-dasharray:99 101;stroke-dashoffset:100;animation:IFVBJWWA_draw 2000ms ease-out 100ms forwards;}.IFVBJWWA_2{stroke-dasharray:99 101;stroke-dashoffset:100;animation:IFVBJWWA_draw 2000ms ease-out 100ms forwards;}.IFVBJWWA_3{stroke-dasharray:99 101;stroke-dashoffset:100;animation:IFVBJWWA_draw 2000ms ease-out 100ms forwards;}.IFVBJWWA_4{stroke-dasharray:99 101;stroke-dashoffset:100;animation:IFVBJWWA_draw 2000ms ease-out 100ms forwards;}.IFVBJWWA_5{stroke-dasharray:99 101;stroke-dashoffset:100;animation:IFVBJWWA_draw 2000ms ease-out 100ms forwards;}.IFVBJWWA_6{stroke-dasharray:99 101;stroke-dashoffset:100;animation:IFVBJWWA_draw 2000ms ease-out 100ms forwards;}.IFVBJWWA_7{stroke-dasharray:99 101;stroke-dashoffset:100;animation:IFVBJWWA_draw 2000ms ease-out 100ms forwards;}.IFVBJWWA_8{stroke-dasharray:99 101;stroke-dashoffset:100;animation:IFVBJWWA_draw 2000ms ease-out 100ms forwards;}.IFVBJWWA_9{stroke-dasharray:99 101;stroke-dashoffset:100;animation:IFVBJWWA_draw 2000ms ease-out 100ms forwards;}.IFVBJWWA_10{stroke-dasharray:99 101;stroke-dashoffset:100;animation:IFVBJWWA_draw 2000ms ease-out 100ms forwards;}.IFVBJWWA_11{stroke-dasharray:99 101;stroke-dashoffset:100;animation:IFVBJWWA_draw 2000ms ease-out 100ms forwards;}.IFVBJWWA_12{stroke-dasharray:99 101;stroke-dashoffset:100;animation:IFVBJWWA_draw 2000ms ease-out 100ms forwards;}.IFVBJWWA_13{stroke-dasharray:99 101;stroke-dashoffset:100;animation:IFVBJWWA_draw 2000ms ease-out 100ms forwards;}.IFVBJWWA_14{stroke-dasharray:99 101;stroke-dashoffset:100;animation:IFVBJWWA_draw 2000ms ease-out 100ms forwards;}@keyframes IFVBJWWA_draw{100%{stroke-dashoffset:0;}}@keyframes IFVBJWWA_fade{0%{stroke-opacity:1;}94.44444444444444%{stroke-opacity:1;}100%{stroke-opacity:0;}}</style></svg>

